<mxfile host="app.diagrams.net" agent="Mozilla/5.0 (Windows NT 10.0; Win64; x64) AppleWebKit/537.36 (KHTML, like Gecko) Chrome/131.0.0.0 Safari/537.36" version="24.8.4">
  <diagram id="hGR8tz3h3le88NItGV1p" name="Page-3">
    <mxGraphModel dx="1105" dy="586" grid="1" gridSize="10" guides="1" tooltips="1" connect="1" arrows="1" fold="1" page="1" pageScale="1" pageWidth="850" pageHeight="1100" math="0" shadow="0">
      <root>
        <mxCell id="0" />
        <mxCell id="1" parent="0" />
        <mxCell id="bHrxJ2hTJ24X4LTH66fF-10" value="" style="endArrow=none;dashed=1;html=1;rounded=0;" edge="1" parent="1">
          <mxGeometry width="50" height="50" relative="1" as="geometry">
            <mxPoint x="90" y="680" as="sourcePoint" />
            <mxPoint x="90" y="640" as="targetPoint" />
          </mxGeometry>
        </mxCell>
        <mxCell id="bHrxJ2hTJ24X4LTH66fF-7" value="" style="endArrow=none;dashed=1;html=1;rounded=0;" edge="1" parent="1" source="bHrxJ2hTJ24X4LTH66fF-8">
          <mxGeometry width="50" height="50" relative="1" as="geometry">
            <mxPoint x="540" y="680" as="sourcePoint" />
            <mxPoint x="540" y="640" as="targetPoint" />
          </mxGeometry>
        </mxCell>
        <mxCell id="bHrxJ2hTJ24X4LTH66fF-9" value="" style="endArrow=none;dashed=1;html=1;rounded=0;" edge="1" parent="1">
          <mxGeometry width="50" height="50" relative="1" as="geometry">
            <mxPoint x="314.47" y="680" as="sourcePoint" />
            <mxPoint x="314.47" y="640" as="targetPoint" />
          </mxGeometry>
        </mxCell>
        <mxCell id="EV1MrnDX8wHa245MuNMX-6" value="" style="endArrow=none;dashed=1;html=1;rounded=0;" parent="1" edge="1">
          <mxGeometry width="50" height="50" relative="1" as="geometry">
            <mxPoint x="310" y="100" as="sourcePoint" />
            <mxPoint x="310" y="70" as="targetPoint" />
          </mxGeometry>
        </mxCell>
        <mxCell id="EV1MrnDX8wHa245MuNMX-3" value="Start" style="text;html=1;align=center;verticalAlign=middle;whiteSpace=wrap;rounded=0;fillColor=none;" parent="1" vertex="1">
          <mxGeometry x="170" y="80" width="60" height="30" as="geometry" />
        </mxCell>
        <mxCell id="oZOi9ztdw3NlKkxCI7ir-12" value="" style="group" parent="1" vertex="1" connectable="0">
          <mxGeometry x="470" width="150" height="650" as="geometry" />
        </mxCell>
        <mxCell id="oZOi9ztdw3NlKkxCI7ir-3" value="Form" style="rounded=0;whiteSpace=wrap;html=1;" parent="oZOi9ztdw3NlKkxCI7ir-12" vertex="1">
          <mxGeometry width="150" height="70" as="geometry" />
        </mxCell>
        <mxCell id="EV1MrnDX8wHa245MuNMX-41" value="" style="endArrow=classic;html=1;rounded=0;" parent="oZOi9ztdw3NlKkxCI7ir-12" edge="1">
          <mxGeometry width="50" height="50" relative="1" as="geometry">
            <mxPoint x="70" y="550" as="sourcePoint" />
            <mxPoint x="300" y="550" as="targetPoint" />
          </mxGeometry>
        </mxCell>
        <mxCell id="oZOi9ztdw3NlKkxCI7ir-13" value="" style="group" parent="1" vertex="1" connectable="0">
          <mxGeometry x="700" width="380" height="600" as="geometry" />
        </mxCell>
        <mxCell id="oZOi9ztdw3NlKkxCI7ir-1" value="System" style="rounded=0;whiteSpace=wrap;html=1;" parent="oZOi9ztdw3NlKkxCI7ir-13" vertex="1">
          <mxGeometry width="150" height="83.125" as="geometry" />
        </mxCell>
        <mxCell id="oZOi9ztdw3NlKkxCI7ir-11" value="" style="endArrow=none;dashed=1;html=1;rounded=0;" parent="oZOi9ztdw3NlKkxCI7ir-13" edge="1">
          <mxGeometry width="50" height="50" relative="1" as="geometry">
            <mxPoint x="75" y="680" as="sourcePoint" />
            <mxPoint x="74.5" y="83.125" as="targetPoint" />
          </mxGeometry>
        </mxCell>
        <mxCell id="EV1MrnDX8wHa245MuNMX-47" value="" style="rounded=0;whiteSpace=wrap;html=1;" parent="oZOi9ztdw3NlKkxCI7ir-13" vertex="1">
          <mxGeometry x="67.5" y="540" width="15" height="60" as="geometry" />
        </mxCell>
        <mxCell id="oZOi9ztdw3NlKkxCI7ir-14" value="" style="group;movable=1;resizable=1;rotatable=1;deletable=1;editable=1;locked=0;connectable=1;" parent="1" vertex="1" connectable="0">
          <mxGeometry x="10" width="550" height="650" as="geometry" />
        </mxCell>
        <mxCell id="EV1MrnDX8wHa245MuNMX-21" value="" style="rounded=0;whiteSpace=wrap;html=1;fillColor=none;" parent="oZOi9ztdw3NlKkxCI7ir-14" vertex="1">
          <mxGeometry x="60" y="270" width="490" height="80" as="geometry" />
        </mxCell>
        <mxCell id="tT-t4kbc6158mNFfq8qH-1" value="User" style="rounded=0;whiteSpace=wrap;html=1;" parent="oZOi9ztdw3NlKkxCI7ir-14" vertex="1">
          <mxGeometry width="150" height="70" as="geometry" />
        </mxCell>
        <mxCell id="oZOi9ztdw3NlKkxCI7ir-9" value="" style="endArrow=none;dashed=1;html=1;rounded=0;" parent="oZOi9ztdw3NlKkxCI7ir-14" edge="1">
          <mxGeometry width="50" height="50" relative="1" as="geometry">
            <mxPoint x="80" y="100" as="sourcePoint" />
            <mxPoint x="80" y="70" as="targetPoint" />
          </mxGeometry>
        </mxCell>
        <mxCell id="EV1MrnDX8wHa245MuNMX-23" value="Choose date" style="text;html=1;align=center;verticalAlign=middle;whiteSpace=wrap;rounded=0;fillColor=none;" parent="oZOi9ztdw3NlKkxCI7ir-14" vertex="1">
          <mxGeometry x="150" y="120" width="90" height="30" as="geometry" />
        </mxCell>
        <mxCell id="EV1MrnDX8wHa245MuNMX-29" value="" style="endArrow=classic;html=1;rounded=0;" parent="oZOi9ztdw3NlKkxCI7ir-14" edge="1">
          <mxGeometry width="50" height="50" relative="1" as="geometry">
            <mxPoint x="80" y="440" as="sourcePoint" />
            <mxPoint x="530" y="440" as="targetPoint" />
          </mxGeometry>
        </mxCell>
        <mxCell id="EV1MrnDX8wHa245MuNMX-28" value="Until there add additional clothes" style="text;html=1;align=left;verticalAlign=middle;whiteSpace=wrap;rounded=0;" parent="oZOi9ztdw3NlKkxCI7ir-14" vertex="1">
          <mxGeometry x="120" y="380" width="210" height="30" as="geometry" />
        </mxCell>
        <mxCell id="EV1MrnDX8wHa245MuNMX-24" value="Until there add essential clothes" style="text;html=1;align=left;verticalAlign=middle;whiteSpace=wrap;rounded=0;fillColor=none;" parent="oZOi9ztdw3NlKkxCI7ir-14" vertex="1">
          <mxGeometry x="122.5" y="280" width="210" height="30" as="geometry" />
        </mxCell>
        <mxCell id="EV1MrnDX8wHa245MuNMX-26" value="Add essential clothes" style="text;html=1;align=center;verticalAlign=middle;whiteSpace=wrap;rounded=0;fillColor=none;" parent="oZOi9ztdw3NlKkxCI7ir-14" vertex="1">
          <mxGeometry x="175" y="310" width="120" height="30" as="geometry" />
        </mxCell>
        <mxCell id="EV1MrnDX8wHa245MuNMX-27" value="" style="rounded=0;whiteSpace=wrap;html=1;fillColor=none;" parent="oZOi9ztdw3NlKkxCI7ir-14" vertex="1">
          <mxGeometry x="60" y="370" width="490" height="80" as="geometry" />
        </mxCell>
        <mxCell id="oZOi9ztdw3NlKkxCI7ir-10" value="" style="endArrow=none;dashed=1;html=1;rounded=0;" parent="oZOi9ztdw3NlKkxCI7ir-14" edge="1">
          <mxGeometry width="50" height="50" relative="1" as="geometry">
            <mxPoint x="530" y="180" as="sourcePoint" />
            <mxPoint x="530" y="70" as="targetPoint" />
          </mxGeometry>
        </mxCell>
        <mxCell id="bHrxJ2hTJ24X4LTH66fF-1" value="" style="rounded=0;whiteSpace=wrap;html=1;" vertex="1" parent="oZOi9ztdw3NlKkxCI7ir-14">
          <mxGeometry x="520" y="170" width="15" height="480" as="geometry" />
        </mxCell>
        <mxCell id="bHrxJ2hTJ24X4LTH66fF-2" value="" style="rounded=0;whiteSpace=wrap;html=1;" vertex="1" parent="oZOi9ztdw3NlKkxCI7ir-14">
          <mxGeometry x="295" y="100" width="15" height="550" as="geometry" />
        </mxCell>
        <mxCell id="EV1MrnDX8wHa245MuNMX-33" value="Submit outfit form" style="text;html=1;align=center;verticalAlign=middle;whiteSpace=wrap;rounded=0;fillColor=none;" parent="oZOi9ztdw3NlKkxCI7ir-14" vertex="1">
          <mxGeometry x="180" y="480" width="110" height="30" as="geometry" />
        </mxCell>
        <mxCell id="EV1MrnDX8wHa245MuNMX-46" value="Return form confirmation" style="text;html=1;align=center;verticalAlign=middle;whiteSpace=wrap;rounded=0;fillColor=none;" parent="oZOi9ztdw3NlKkxCI7ir-14" vertex="1">
          <mxGeometry x="360" y="610" width="170" height="30" as="geometry" />
        </mxCell>
        <mxCell id="EV1MrnDX8wHa245MuNMX-18" value="Open catalogue to choose outfits" style="text;html=1;align=center;verticalAlign=middle;whiteSpace=wrap;rounded=0;fillColor=none;" parent="oZOi9ztdw3NlKkxCI7ir-14" vertex="1">
          <mxGeometry x="110" y="210" width="190" height="30" as="geometry" />
        </mxCell>
        <mxCell id="EV1MrnDX8wHa245MuNMX-25" value="" style="endArrow=classic;html=1;rounded=0;" parent="oZOi9ztdw3NlKkxCI7ir-14" edge="1">
          <mxGeometry width="50" height="50" relative="1" as="geometry">
            <mxPoint x="80" y="340" as="sourcePoint" />
            <mxPoint x="520" y="340" as="targetPoint" />
          </mxGeometry>
        </mxCell>
        <mxCell id="bHrxJ2hTJ24X4LTH66fF-5" value="" style="rounded=0;whiteSpace=wrap;html=1;" vertex="1" parent="oZOi9ztdw3NlKkxCI7ir-14">
          <mxGeometry x="67.5" y="100" width="15" height="550" as="geometry" />
        </mxCell>
        <mxCell id="EV1MrnDX8wHa245MuNMX-1" value="" style="endArrow=classic;html=1;rounded=0;" parent="1" edge="1">
          <mxGeometry width="50" height="50" relative="1" as="geometry">
            <mxPoint x="90" y="110" as="sourcePoint" />
            <mxPoint x="310" y="110" as="targetPoint" />
          </mxGeometry>
        </mxCell>
        <mxCell id="EV1MrnDX8wHa245MuNMX-5" value="Calendar" style="rounded=0;whiteSpace=wrap;html=1;" parent="1" vertex="1">
          <mxGeometry x="240" width="150" height="70" as="geometry" />
        </mxCell>
        <mxCell id="EV1MrnDX8wHa245MuNMX-13" value="Open" style="text;html=1;align=center;verticalAlign=middle;whiteSpace=wrap;rounded=0;fillColor=none;" parent="1" vertex="1">
          <mxGeometry x="390" y="160" width="60" height="30" as="geometry" />
        </mxCell>
        <mxCell id="EV1MrnDX8wHa245MuNMX-22" value="" style="endArrow=classic;html=1;rounded=0;" parent="1" edge="1">
          <mxGeometry width="50" height="50" relative="1" as="geometry">
            <mxPoint x="90" y="150" as="sourcePoint" />
            <mxPoint x="310" y="150" as="targetPoint" />
          </mxGeometry>
        </mxCell>
        <mxCell id="EV1MrnDX8wHa245MuNMX-14" value="" style="endArrow=classic;html=1;rounded=0;" parent="1" edge="1">
          <mxGeometry width="50" height="50" relative="1" as="geometry">
            <mxPoint x="530" y="240" as="sourcePoint" />
            <mxPoint x="90" y="240" as="targetPoint" />
          </mxGeometry>
        </mxCell>
        <mxCell id="EV1MrnDX8wHa245MuNMX-12" value="" style="endArrow=classic;html=1;rounded=0;" parent="1" edge="1">
          <mxGeometry width="50" height="50" relative="1" as="geometry">
            <mxPoint x="310" y="190" as="sourcePoint" />
            <mxPoint x="530" y="190" as="targetPoint" />
          </mxGeometry>
        </mxCell>
        <mxCell id="EV1MrnDX8wHa245MuNMX-30" value="Add additional clothes" style="text;html=1;align=center;verticalAlign=middle;whiteSpace=wrap;rounded=0;fillColor=none;" parent="1" vertex="1">
          <mxGeometry x="172.5" y="410" width="135" height="30" as="geometry" />
        </mxCell>
        <mxCell id="EV1MrnDX8wHa245MuNMX-32" value="" style="endArrow=classic;html=1;rounded=0;" parent="1" edge="1">
          <mxGeometry width="50" height="50" relative="1" as="geometry">
            <mxPoint x="90" y="510" as="sourcePoint" />
            <mxPoint x="530" y="510" as="targetPoint" />
          </mxGeometry>
        </mxCell>
        <mxCell id="EV1MrnDX8wHa245MuNMX-42" value="Add outfit to the specified date" style="text;html=1;align=center;verticalAlign=middle;whiteSpace=wrap;rounded=0;fillColor=none;" parent="1" vertex="1">
          <mxGeometry x="570" y="520" width="170" height="30" as="geometry" />
        </mxCell>
        <mxCell id="EV1MrnDX8wHa245MuNMX-43" value="" style="endArrow=classic;html=1;rounded=0;" parent="1" edge="1">
          <mxGeometry width="50" height="50" relative="1" as="geometry">
            <mxPoint x="775" y="590" as="sourcePoint" />
            <mxPoint x="540" y="591" as="targetPoint" />
          </mxGeometry>
        </mxCell>
        <mxCell id="EV1MrnDX8wHa245MuNMX-44" value="Add outfit response" style="text;html=1;align=center;verticalAlign=middle;whiteSpace=wrap;rounded=0;fillColor=none;" parent="1" vertex="1">
          <mxGeometry x="580" y="560" width="170" height="30" as="geometry" />
        </mxCell>
        <mxCell id="EV1MrnDX8wHa245MuNMX-45" value="" style="endArrow=classic;html=1;rounded=0;" parent="1" edge="1">
          <mxGeometry width="50" height="50" relative="1" as="geometry">
            <mxPoint x="538.75" y="640" as="sourcePoint" />
            <mxPoint x="91.25" y="641" as="targetPoint" />
          </mxGeometry>
        </mxCell>
        <mxCell id="bHrxJ2hTJ24X4LTH66fF-11" value="" style="endArrow=none;dashed=1;html=1;rounded=0;" edge="1" parent="1" target="bHrxJ2hTJ24X4LTH66fF-8">
          <mxGeometry width="50" height="50" relative="1" as="geometry">
            <mxPoint x="540" y="680" as="sourcePoint" />
            <mxPoint x="540" y="640" as="targetPoint" />
          </mxGeometry>
        </mxCell>
        <mxCell id="bHrxJ2hTJ24X4LTH66fF-8" value="&lt;font style=&quot;font-size: 48px;&quot;&gt;&lt;b&gt;x&lt;/b&gt;&lt;/font&gt;" style="text;html=1;align=center;verticalAlign=middle;whiteSpace=wrap;rounded=0;" vertex="1" parent="1">
          <mxGeometry x="510" y="670" width="60" height="30" as="geometry" />
        </mxCell>
      </root>
    </mxGraphModel>
  </diagram>
</mxfile>
